<svg viewBox="0 0 32 32">
    <path d="M9.996,15.581c0-0.834,0.189-1.597,0.569-2.288c0.38-0.689,0.891-1.247,1.534-1.669c-1.402-0.886-2.103-2.113-2.103-3.687
		c0-1.38,0.587-2.488,1.763-3.323c1.177-0.833,2.724-1.249,4.645-1.249c1.793,0,3.708,0.442,5.742,1.33L20.851,7.7
		c-0.719-0.338-1.447-0.64-2.192-0.91c-0.744-0.269-1.527-0.402-2.349-0.402c-0.856,0-1.479,0.12-1.868,0.363
		c-0.391,0.244-0.585,0.617-0.585,1.124c0,0.516,0.261,0.97,0.784,1.361c0.521,0.391,1.382,0.823,2.586,1.296
		c1.719,0.675,2.985,1.459,3.797,2.351c0.812,0.892,1.22,1.911,1.22,3.062c0,1.868-0.66,3.237-1.979,4.113
		c0.654,0.425,1.147,0.911,1.479,1.466c0.332,0.554,0.499,1.221,0.499,1.999c0,1.563-0.631,2.805-1.892,3.728
		s-2.952,1.382-5.071,1.382c-2.143,0-3.983-0.416-5.522-1.249v-3.275c0.854,0.432,1.804,0.802,2.848,1.1
		c1.045,0.303,1.937,0.452,2.675,0.452c2.046,0,3.07-0.617,3.07-1.851c0-0.412-0.099-0.746-0.293-0.997
		c-0.196-0.252-0.53-0.515-1.006-0.782c-0.475-0.271-1.133-0.585-1.977-0.942c-1.931-0.781-3.258-1.587-3.987-2.411
		C10.359,17.846,9.996,16.814,9.996,15.581z M13.525,15.231c0,0.707,0.342,1.335,1.027,1.884c0.685,0.548,1.64,1.065,2.863,1.552
		c0.823-0.604,1.235-1.373,1.235-2.312c0-0.717-0.267-1.324-0.799-1.818c-0.532-0.497-1.5-1.002-2.903-1.521
		c-0.391,0.149-0.727,0.43-1.005,0.847C13.665,14.281,13.525,14.737,13.525,15.231z"/>
</svg>